<svg width="399" height="106" viewBox="0 0 399 106" fill="none" xmlns="http://www.w3.org/2000/svg">
<path d="M142.934 56.5125H130.248C125.915 56.5125 122.7 55.646 120.603 53.9129C118.506 52.1798 117.458 49.5109 117.458 45.906V29.7364C117.458 26.1316 118.506 23.454 120.603 21.7036C122.7 19.9532 125.915 19.078 130.248 19.078H142.934C143.593 19.078 144.069 19.2253 144.364 19.5199C144.658 19.8145 144.806 20.2911 144.806 20.9497V27.2408C144.806 27.8993 144.658 28.3759 144.364 28.6706C144.069 28.9652 143.593 29.1125 142.934 29.1125H132.484C131.409 29.1125 130.612 29.3291 130.092 29.7624C129.572 30.1957 129.312 30.8456 129.312 31.7121V44.0863C129.312 44.9528 129.572 45.5854 130.092 45.984C130.612 46.3826 131.409 46.5819 132.484 46.5819H142.934C143.593 46.5819 144.069 46.7293 144.364 47.0239C144.658 47.3185 144.806 47.7951 144.806 48.4537V54.6408C144.806 55.2993 144.658 55.7759 144.364 56.0706C144.069 56.3652 143.593 56.5125 142.934 56.5125ZM164.251 29.9964L161.807 37.8992H169.97L167.526 29.9964C167.388 29.6844 167.241 29.4591 167.085 29.3205C166.929 29.1818 166.747 29.1125 166.539 29.1125H165.239C165.031 29.1125 164.849 29.1818 164.693 29.3205C164.537 29.4591 164.39 29.6844 164.251 29.9964ZM161.287 47.3618V54.6408C161.287 55.2993 161.14 55.7759 160.845 56.0706C160.551 56.3652 160.074 56.5125 159.416 56.5125H151.773C151.114 56.5125 150.638 56.3652 150.343 56.0706C150.048 55.7759 149.901 55.2993 149.901 54.6408V40.9148C149.901 39.8749 150.066 38.6791 150.395 37.3273C150.724 35.9755 151.236 34.3984 151.929 32.596L156.452 20.7937C156.66 20.2045 156.981 19.7712 157.414 19.4939C157.847 19.2166 158.41 19.078 159.104 19.078H173.09C173.748 19.078 174.294 19.2166 174.727 19.4939C175.161 19.7712 175.481 20.2045 175.689 20.7937L180.213 32.596C180.906 34.3984 181.417 35.9755 181.746 37.3273C182.076 38.6791 182.24 39.8749 182.24 40.9148V54.6408C182.24 55.2993 182.093 55.7759 181.798 56.0706C181.504 56.3652 181.027 56.5125 180.369 56.5125H172.518C171.825 56.5125 171.313 56.3652 170.984 56.0706C170.655 55.7759 170.49 55.2993 170.49 54.6408V47.3618H161.287ZM206.001 56.5125H189.571C188.913 56.5125 188.436 56.3652 188.141 56.0706C187.847 55.7759 187.7 55.2993 187.7 54.6408V48.5577C187.7 47.8991 187.847 47.4225 188.141 47.1279C188.436 46.8332 188.913 46.6859 189.571 46.6859H203.557C204.008 46.6859 204.346 46.5386 204.571 46.244C204.796 45.9494 204.909 45.5941 204.909 45.1782C204.909 44.5889 204.796 44.1556 204.571 43.8783C204.346 43.601 204.008 43.4451 203.557 43.4104L195.758 42.3186C193.332 41.972 191.382 41.1747 189.909 39.9269C188.436 38.6791 187.7 36.5994 187.7 33.6878V28.2286C187.7 25.2824 188.653 23.0207 190.559 21.4436C192.465 19.8665 195.1 19.078 198.462 19.078H213.02C213.678 19.078 214.155 19.2253 214.45 19.5199C214.744 19.8145 214.892 20.2911 214.892 20.9497V27.1368C214.892 27.7954 214.744 28.2719 214.45 28.5666C214.155 28.8612 213.678 29.0085 213.02 29.0085H200.906C200.455 29.0085 200.108 29.1558 199.866 29.4504C199.623 29.7451 199.502 30.1177 199.502 30.5683C199.502 31.0189 199.623 31.4002 199.866 31.7121C200.108 32.0241 200.455 32.1974 200.906 32.232L208.652 33.2719C211.079 33.6185 213.037 34.4157 214.528 35.6635C216.018 36.9114 216.763 38.9911 216.763 41.9026V47.3618C216.763 50.3081 215.801 52.5697 213.878 54.1468C211.954 55.7239 209.328 56.5125 206.001 56.5125ZM232.361 56.5125H224.302C223.644 56.5125 223.167 56.3652 222.872 56.0706C222.578 55.7759 222.43 55.2993 222.43 54.6408V20.9497C222.43 20.2911 222.578 19.8145 222.872 19.5199C223.167 19.2253 223.644 19.078 224.302 19.078H232.361C233.02 19.078 233.496 19.2253 233.791 19.5199C234.085 19.8145 234.233 20.2911 234.233 20.9497V32.232H242.915V20.9497C242.915 20.2911 243.063 19.8145 243.357 19.5199C243.652 19.2253 244.129 19.078 244.787 19.078H252.846C253.505 19.078 253.981 19.2253 254.276 19.5199C254.57 19.8145 254.718 20.2911 254.718 20.9497V54.6408C254.718 55.2993 254.57 55.7759 254.276 56.0706C253.981 56.3652 253.505 56.5125 252.846 56.5125H244.787C244.129 56.5125 243.652 56.3652 243.357 56.0706C243.063 55.7759 242.915 55.2993 242.915 54.6408V43.0985H234.233V54.6408C234.233 55.2993 234.085 55.7759 233.791 56.0706C233.496 56.3652 233.02 56.5125 232.361 56.5125ZM277.542 28.4366H273.643V35.0916H277.542C278.444 35.0916 279.05 34.8577 279.362 34.3897C279.674 33.9218 279.83 33.3412 279.83 32.648V30.8802C279.83 30.187 279.674 29.6064 279.362 29.1385C279.05 28.6706 278.444 28.4366 277.542 28.4366ZM271.771 56.5125H263.764C263.106 56.5125 262.629 56.3652 262.335 56.0706C262.04 55.7759 261.893 55.2993 261.893 54.6408V20.9497C261.893 20.2911 262.04 19.8145 262.335 19.5199C262.629 19.2253 263.106 19.078 263.764 19.078H281.078C284.96 19.078 287.638 19.8838 289.111 21.4956C290.584 23.1074 291.32 25.1957 291.32 27.7607V30.1523C291.32 31.6081 291.104 32.8473 290.671 33.8698C290.237 34.8923 289.483 35.6289 288.409 36.0795C290.281 36.2874 291.797 37.05 292.958 38.3671C294.119 39.6843 294.7 41.4347 294.7 43.6184V54.6408C294.7 55.2993 294.553 55.7759 294.258 56.0706C293.963 56.3652 293.487 56.5125 292.828 56.5125H284.769C284.111 56.5125 283.634 56.3652 283.34 56.0706C283.045 55.7759 282.898 55.2993 282.898 54.6408V46.6859C282.898 45.9234 282.75 45.3601 282.456 44.9962C282.161 44.6322 281.65 44.4503 280.922 44.4503H273.643V54.6408C273.643 55.2993 273.496 55.7759 273.201 56.0706C272.906 56.3652 272.43 56.5125 271.771 56.5125ZM326.519 56.5125H302.395C301.736 56.5125 301.26 56.3652 300.965 56.0706C300.67 55.7759 300.523 55.2993 300.523 54.6408V20.9497C300.523 20.2911 300.67 19.8145 300.965 19.5199C301.26 19.2253 301.736 19.078 302.395 19.078H326.519C327.178 19.078 327.654 19.2253 327.949 19.5199C328.244 19.8145 328.391 20.2911 328.391 20.9497V27.0328C328.391 27.6914 328.244 28.168 327.949 28.4626C327.654 28.7572 327.178 28.9045 326.519 28.9045H312.169V32.9079H322.308C322.967 32.9079 323.443 33.0553 323.738 33.3499C324.032 33.6445 324.18 34.1211 324.18 34.7797V40.3429C324.18 41.0014 324.032 41.478 323.738 41.7726C323.443 42.0673 322.967 42.2146 322.308 42.2146H312.169V46.6859H326.519C327.178 46.6859 327.654 46.8332 327.949 47.1279C328.244 47.4225 328.391 47.8991 328.391 48.5577V54.6408C328.391 55.2993 328.244 55.7759 327.949 56.0706C327.654 56.3652 327.178 56.5125 326.519 56.5125ZM351.892 56.5125H335.462C334.803 56.5125 334.327 56.3652 334.032 56.0706C333.738 55.7759 333.59 55.2993 333.59 54.6408V48.5577C333.59 47.8991 333.738 47.4225 334.032 47.1279C334.327 46.8332 334.803 46.6859 335.462 46.6859H349.448C349.899 46.6859 350.237 46.5386 350.462 46.244C350.687 45.9494 350.8 45.5941 350.8 45.1782C350.8 44.5889 350.687 44.1556 350.462 43.8783C350.237 43.601 349.899 43.4451 349.448 43.4104L341.649 42.3186C339.223 41.972 337.273 41.1747 335.8 39.9269C334.327 38.6791 333.59 36.5994 333.59 33.6878V28.2286C333.59 25.2824 334.543 23.0207 336.45 21.4436C338.356 19.8665 340.991 19.078 344.353 19.078H358.911C359.569 19.078 360.046 19.2253 360.34 19.5199C360.635 19.8145 360.782 20.2911 360.782 20.9497V27.1368C360.782 27.7954 360.635 28.2719 360.34 28.5666C360.046 28.8612 359.569 29.0085 358.911 29.0085H346.796C346.346 29.0085 345.999 29.1558 345.757 29.4504C345.514 29.7451 345.393 30.1177 345.393 30.5683C345.393 31.0189 345.514 31.4002 345.757 31.7121C345.999 32.0241 346.346 32.1974 346.796 32.232L354.543 33.2719C356.97 33.6185 358.928 34.4157 360.418 35.6635C361.909 36.9114 362.654 38.9911 362.654 41.9026V47.3618C362.654 50.3081 361.692 52.5697 359.768 54.1468C357.845 55.7239 355.219 56.5125 351.892 56.5125ZM378.252 56.5125H370.193C369.534 56.5125 369.058 56.3652 368.763 56.0706C368.469 55.7759 368.321 55.2993 368.321 54.6408V20.9497C368.321 20.2911 368.469 19.8145 368.763 19.5199C369.058 19.2253 369.534 19.078 370.193 19.078H386.103C390.817 19.078 394.04 20.0138 395.773 21.8855C397.506 23.7573 398.373 26.2009 398.373 29.2165V35.8715C398.373 38.8871 397.506 41.3307 395.773 43.2024C394.04 45.0742 390.817 46.01 386.103 46.01H380.124V54.6408C380.124 55.2993 379.976 55.7759 379.682 56.0706C379.387 56.3652 378.91 56.5125 378.252 56.5125ZM384.699 28.8005H380.02V36.6514H384.699C385.704 36.6514 386.363 36.3914 386.675 35.8715C386.987 35.3516 387.142 34.7623 387.142 34.1038V31.3482C387.142 30.6896 386.987 30.1003 386.675 29.5804C386.363 29.0605 385.704 28.8005 384.699 28.8005Z" fill="white"/>
<path d="M93.7796 0H44.7431C41.5059 0.00282975 38.4019 1.28934 36.1118 3.57741C33.8217 5.86548 32.5325 8.96835 32.5268 12.2056V33.3191H11.3063C8.30854 33.3219 5.43441 34.514 3.31469 36.6337C1.19498 38.7534 0.00288033 41.6276 4.56002e-05 44.6253V79.5076C-0.00417824 80.9955 0.285071 82.4697 0.851239 83.8458C1.41741 85.2218 2.24938 86.4727 3.29954 87.5268C4.3497 88.581 5.59743 89.4177 6.97132 89.989C8.34522 90.5604 9.8183 90.8552 11.3063 90.8566H16.2956V102.805C16.2925 103.338 16.4481 103.859 16.7427 104.302C17.0373 104.745 17.4574 105.091 17.9493 105.294C18.4412 105.498 18.9826 105.55 19.5043 105.444C20.0259 105.338 20.5042 105.079 20.878 104.7L34.7967 90.8566H54.7003C56.1883 90.8552 57.6614 90.5604 59.0353 89.989C60.4091 89.4177 61.6569 88.581 62.707 87.5268C63.7572 86.4727 64.5892 85.2218 65.1553 83.8458C65.7215 82.4697 66.0108 80.9955 66.0065 79.5076V63.0086H67.9873L83.4263 78.3834C83.8006 78.7587 84.278 79.0144 84.7978 79.1181C85.3177 79.2217 85.8566 79.1687 86.3463 78.9657C86.836 78.7627 87.2544 78.4189 87.5484 77.9779C87.8425 77.5368 87.9989 77.0184 87.998 76.4883V63.0086H93.7903C97.0275 63.003 100.13 61.7137 102.418 59.4236C104.707 57.1336 105.993 54.0296 105.996 50.7923V12.2484C105.999 10.6418 105.685 9.05046 105.072 7.56524C104.46 6.08001 103.561 4.73007 102.426 3.59256C101.292 2.45505 99.9439 1.55228 98.4603 0.935843C96.9767 0.319411 95.3862 0.00140434 93.7796 0ZM60.6532 79.5076C60.6504 81.0855 60.0223 82.598 58.9065 83.7138C57.7907 84.8296 56.2783 85.4576 54.7003 85.4605H33.6296C33.2779 85.4598 32.9295 85.5285 32.6043 85.6627C32.2791 85.7968 31.9836 85.9937 31.7346 86.2421L21.6489 96.3063V88.18C21.6489 87.4701 21.3669 86.7892 20.8649 86.2873C20.3629 85.7853 19.6821 85.5033 18.9722 85.5033H11.3063C10.5213 85.5019 9.74434 85.3456 9.01994 85.0432C8.29554 84.7409 7.63795 84.2985 7.0849 83.7415C6.53184 83.1844 6.09419 82.5237 5.79705 81.7971C5.49992 81.0706 5.34914 80.2925 5.35337 79.5076V44.6253C5.3562 43.0474 5.98429 41.5349 7.10006 40.4191C8.21583 39.3033 9.72833 38.6752 11.3063 38.6724H32.5376V50.7923C32.5404 54.0296 33.8269 57.1336 36.115 59.4236C38.403 61.7137 41.5059 63.003 44.7431 63.0086H60.6532V79.5076ZM100.643 50.7923C100.643 52.6125 99.9195 54.3581 98.6324 55.6452C97.3454 56.9322 95.5998 57.6553 93.7796 57.6553H85.3106C84.6007 57.6553 83.9199 57.9373 83.4179 58.4393C82.916 58.9412 82.634 59.6221 82.634 60.332V70.0322L71.0173 58.4369C70.7682 58.1885 70.4727 57.9916 70.1475 57.8575C69.8223 57.7234 69.4739 57.6547 69.1222 57.6553H44.7431C42.923 57.6553 41.1773 56.9322 39.8903 55.6452C38.6032 54.3581 37.8802 52.6125 37.8802 50.7923V12.2484C37.883 10.4301 38.6073 8.68722 39.8941 7.40248C41.1808 6.11774 42.9248 5.39615 44.7431 5.39615H93.7796C95.5979 5.39615 97.3419 6.11774 98.6287 7.40248C99.9154 8.68722 100.64 10.4301 100.643 12.2484V50.7923Z" fill="white"/>
<path d="M69.5483 23.9791C65.3407 14.8888 50.681 19.7267 54.408 31.5314C56.4081 37.4016 60.4733 40.0041 69.5476 46.5493C78.6229 40.0041 82.6868 37.4009 84.6876 31.5314C88.4128 19.7267 73.7549 14.8888 69.5483 23.9791Z" fill="#8DB8DF"/>
</svg>
