<svg width="106" height="106" viewBox="0 0 106 106" fill="none" xmlns="http://www.w3.org/2000/svg">
<path d="M93.7796 0H44.7431C41.5059 0.00282975 38.4019 1.28934 36.1118 3.57741C33.8217 5.86548 32.5325 8.96835 32.5268 12.2056V33.3191H11.3063C8.30854 33.3219 5.43441 34.514 3.31469 36.6337C1.19498 38.7534 0.00288033 41.6276 4.56002e-05 44.6253V79.5076C-0.00417824 80.9955 0.285071 82.4697 0.851239 83.8458C1.41741 85.2218 2.24938 86.4727 3.29954 87.5268C4.3497 88.581 5.59743 89.4177 6.97132 89.989C8.34522 90.5604 9.8183 90.8552 11.3063 90.8566H16.2956V102.805C16.2925 103.338 16.4481 103.859 16.7427 104.302C17.0373 104.745 17.4574 105.091 17.9493 105.294C18.4412 105.498 18.9826 105.55 19.5043 105.444C20.0259 105.338 20.5042 105.079 20.878 104.7L34.7967 90.8566H54.7003C56.1883 90.8552 57.6614 90.5604 59.0353 89.989C60.4091 89.4177 61.6569 88.581 62.707 87.5268C63.7572 86.4727 64.5892 85.2218 65.1553 83.8458C65.7215 82.4697 66.0108 80.9955 66.0065 79.5076V63.0086H67.9873L83.4263 78.3834C83.8006 78.7587 84.278 79.0144 84.7978 79.1181C85.3177 79.2217 85.8566 79.1687 86.3463 78.9657C86.836 78.7627 87.2544 78.4189 87.5484 77.9779C87.8425 77.5368 87.9989 77.0184 87.998 76.4883V63.0086H93.7903C97.0275 63.003 100.13 61.7137 102.418 59.4236C104.707 57.1336 105.993 54.0296 105.996 50.7923V12.2484C105.999 10.6418 105.685 9.05046 105.072 7.56524C104.46 6.08001 103.561 4.73007 102.426 3.59256C101.292 2.45505 99.9439 1.55228 98.4603 0.935843C96.9767 0.319411 95.3862 0.00140434 93.7796 0ZM60.6532 79.5076C60.6504 81.0855 60.0223 82.598 58.9065 83.7138C57.7907 84.8296 56.2783 85.4576 54.7003 85.4605H33.6296C33.2779 85.4598 32.9295 85.5285 32.6043 85.6627C32.2791 85.7968 31.9836 85.9937 31.7346 86.2421L21.6489 96.3063V88.18C21.6489 87.4701 21.3669 86.7892 20.8649 86.2873C20.3629 85.7853 19.6821 85.5033 18.9722 85.5033H11.3063C10.5213 85.5019 9.74434 85.3456 9.01994 85.0432C8.29554 84.7409 7.63795 84.2985 7.0849 83.7415C6.53184 83.1844 6.09419 82.5237 5.79705 81.7971C5.49992 81.0706 5.34914 80.2925 5.35337 79.5076V44.6253C5.3562 43.0474 5.98429 41.5349 7.10006 40.4191C8.21583 39.3033 9.72833 38.6752 11.3063 38.6724H32.5376V50.7923C32.5404 54.0296 33.8269 57.1336 36.115 59.4236C38.403 61.7137 41.5059 63.003 44.7431 63.0086H60.6532V79.5076ZM100.643 50.7923C100.643 52.6125 99.9195 54.3581 98.6324 55.6452C97.3454 56.9322 95.5998 57.6553 93.7796 57.6553H85.3106C84.6007 57.6553 83.9199 57.9373 83.4179 58.4393C82.916 58.9412 82.634 59.6221 82.634 60.332V70.0322L71.0173 58.4369C70.7682 58.1885 70.4727 57.9916 70.1475 57.8575C69.8223 57.7234 69.4739 57.6547 69.1222 57.6553H44.7431C42.923 57.6553 41.1773 56.9322 39.8903 55.6452C38.6032 54.3581 37.8802 52.6125 37.8802 50.7923V12.2484C37.883 10.4301 38.6073 8.68722 39.8941 7.40248C41.1808 6.11774 42.9248 5.39615 44.7431 5.39615H93.7796C95.5979 5.39615 97.3419 6.11774 98.6287 7.40248C99.9154 8.68722 100.64 10.4301 100.643 12.2484V50.7923Z" fill="#0E6DCD"/>
<path d="M69.5483 23.9791C65.3407 14.8888 50.681 19.7267 54.408 31.5314C56.4081 37.4016 60.4733 40.0041 69.5476 46.5493C78.6229 40.0041 82.6868 37.4009 84.6876 31.5314C88.4128 19.7267 73.7549 14.8888 69.5483 23.9791Z" fill="#0E6DCD"/>
</svg>
